<?xml version="1.0" encoding="iso-8859-1"?>
<!-- Generator: Adobe Illustrator 19.0.0, SVG Export Plug-In . SVG Version: 6.00 Build 0)  -->
<svg version="1.1" id="Capa_1" xmlns="http://www.w3.org/2000/svg" xmlns:xlink="http://www.w3.org/1999/xlink" x="0px" y="0px"
	 viewBox="0 0 489.3 489.3" style="enable-background:new 0 0 489.3 489.3;" xml:space="preserve">
<g>
	<g>
		<g>
			<path d="M453.95,150.9L299.85,5.2c-3.1-3.1-8.3-5.2-13.5-5.2H49.95c-11.5,0-20.8,9.4-20.8,20.8v447.7c0,11.5,9.4,20.8,20.8,20.8
				h389.4c11.5,0,20.8-9.4,20.8-20.8v-303C460.15,160.3,458.05,155.1,453.95,150.9z M306.05,67.4l81.9,78.3h-81.9V67.4z
				 M69.75,448.7V40.6h194.7v124.9c0,11.5,9.4,20.8,20.8,20.8h133.3v262.4H69.75z"/>
		</g>
		<g>
			<path d="M149.15,278.1c2.5,0,7.9,4,12.6,15c2.9,6.9,10.9,10.1,17.7,7.1c6.9-2.9,10.1-10.9,7.1-17.7c-8.5-20-22.2-31.5-37.4-31.5
				c-14.3,0-26.9,9.7-35.5,27.3c-7.1,14.6-11.1,33.6-11.1,53.6s3.9,39.1,11.1,53.6c8.6,17.6,21.3,27.3,35.5,27.3
				c14.8,0,28.2-10.9,36.8-29.9c3.1-6.8,0-14.8-6.8-17.8c-6.8-3.1-14.8,0-17.8,6.8c-4.3,9.6-9.3,14-12.1,14
				c-2.5,0-7.2-3.8-11.3-12.2c-5.3-10.8-8.3-26-8.3-41.7s3-31,8.3-41.7C141.95,281.9,146.55,278.1,149.15,278.1z"/>
			<path d="M241.95,318.5c-11.2,0-20.2-9.1-20.2-20.2c0-11.2,9.1-20.2,20.2-20.2c5.6,0,10.9,2.3,14.7,6.4c5.1,5.4,13.7,5.7,19.1,0.6
				s5.7-13.7,0.6-19.1c-8.9-9.4-21.4-14.9-34.4-14.9c-26,0-47.2,21.2-47.2,47.2s21.2,47.2,47.2,47.2c11.2,0,20.2,9.1,20.2,20.2
				s-9.1,20.2-20.2,20.2c-5.6,0-10.9-2.3-14.7-6.4c-5.1-5.4-13.7-5.7-19.1-0.6c-5.4,5.1-5.7,13.7-0.6,19.1
				c8.9,9.4,21.4,14.9,34.4,14.9c26,0,47.2-21.2,47.2-47.2S267.95,318.5,241.95,318.5z"/>
			<path d="M339.55,318.5c-11.2,0-20.2-9.1-20.2-20.2c0-11.2,9.1-20.2,20.2-20.2c5.6,0,10.9,2.3,14.7,6.4c5.1,5.4,13.7,5.7,19.1,0.6
				s5.7-13.7,0.6-19.1c-8.9-9.4-21.4-14.9-34.4-14.9c-26,0-47.2,21.2-47.2,47.2s21.2,47.2,47.2,47.2c11.2,0,20.2,9.1,20.2,20.2
				s-9.1,20.2-20.2,20.2c-5.6,0-10.9-2.3-14.7-6.4c-5.1-5.4-13.7-5.7-19.1-0.6s-5.7,13.7-0.6,19.1c8.9,9.4,21.4,14.9,34.4,14.9
				c26,0,47.2-21.2,47.2-47.2S365.55,318.5,339.55,318.5z"/>
		</g>
	</g>
</g>
<g>
</g>
<g>
</g>
<g>
</g>
<g>
</g>
<g>
</g>
<g>
</g>
<g>
</g>
<g>
</g>
<g>
</g>
<g>
</g>
<g>
</g>
<g>
</g>
<g>
</g>
<g>
</g>
<g>
</g>
</svg>
